Coordinates
version=1
nRows=16
nColumns=30
inDegrees=yes

Units are S.I. units (second, meters, Newtons, ...)
Angles are in degrees.

endheader
time	floatyaw	floatroll	floatpitch	floatx	floaty	floatz	pro_sup_l	deviation_l	flexion_l	cmc_flexion_l	cmc_abduction_l	mp_flexion_l	ip_flexion_l	2mcp_flexion_l	2mcp_abduction_l	2pm_flexion_l	2md_flexion_l	3mcp_flexion_l	3mcp_abduction_l	3pm_flexion_l	3md_flexion_l	4mcp_flexion_l	4mcp_abduction_l	4pm_flexion_l	4md_flexion_l	5mcp_flexion_l	5mcp_abduction_l	5pm_flexion_l	5md_flexion_l
-0.495000	-3.835761	-5.011433	94.526577	-0.003923	-0.264994	0.000477	92.381198	-0.199741	-1.010212	24.929668	4.277058	-17.349581	-30.080383	20.744590	6.783519	32.320446	19.999970	9.982326	4.890814	35.332670	21.424218	-1.250121	-3.820805	52.235924	32.074477	-19.601253	-10.711601	63.016514	46.940829
-0.485000	-3.835761	-5.011433	94.526577	-0.002600	-0.263732	0.002442	91.999156	0.011259	-0.564638	23.912700	4.935525	-17.073901	-29.036849	21.320418	6.877023	31.788970	19.798057	10.541020	5.021347	34.801512	21.333995	-0.859095	-3.823887	51.743441	31.840196	-18.256846	-10.949262	61.667360	45.881151
-0.475000	-3.835761	-5.011433	94.526577	-0.000910	-0.262267	0.004777	91.498176	0.358791	-0.059738	22.678547	5.690422	-16.800246	-27.857076	22.046633	6.992437	31.090691	19.520708	11.239754	5.174191	34.115212	21.248914	-0.375796	-3.824274	51.103391	31.618124	-16.684214	-11.160544	59.912440	44.789175
-0.465000	-3.835761	-5.011433	94.526577	0.001204	-0.260574	0.007499	90.881911	0.857308	0.489077	21.242879	6.582902	-16.558610	-26.583333	22.948504	7.109895	30.245094	19.167439	12.082579	5.328000	33.292406	21.176359	0.219835	-3.809462	50.339397	31.427700	-14.885793	-11.322239	57.818189	43.690645
-0.455000	-3.835761	-5.011433	94.526577	0.003783	-0.258639	0.010606	90.190841	1.517721	1.064658	19.655967	7.609717	-16.370466	-25.275032	24.033303	7.209938	29.293107	18.738773	13.063851	5.462957	32.367107	21.107358	0.949111	-3.766129	49.490347	31.272090	-12.887472	-11.425468	55.515612	42.577320
-0.445000	-3.835761	-5.011433	94.526577	0.006844	-0.256466	0.014076	89.494668	2.348619	1.649852	17.985527	8.712534	-16.233976	-23.981077	25.287032	7.282363	28.280848	18.236576	14.173917	5.568207	31.377667	21.019592	1.826679	-3.686148	48.595941	31.143289	-10.758696	-11.471858	53.166889	41.434160
-0.435000	-3.835761	-5.011433	94.526577	0.010382	-0.254089	0.017874	88.870509	3.352523	2.229516	16.293887	9.799634	-16.120768	-22.719898	26.677847	7.329735	27.248558	17.669419	15.404307	5.643536	30.358825	20.888866	2.855152	-3.570412	47.681968	31.033932	-8.610764	-11.465545	50.927099	40.272423
-0.425000	-3.835761	-5.011433	94.526577	0.014376	-0.251571	0.021963	88.378564	4.517602	2.792566	14.626688	10.785273	-15.989820	-21.485533	28.164314	7.364401	26.229709	17.058784	16.748144	5.695722	29.341051	20.702145	4.022686	-3.428530	46.755099	30.948784	-6.573130	-11.409403	48.918963	39.143630
-0.415000	-3.835761	-5.011433	94.526577	0.018796	-0.249001	0.026320	88.047450	5.810369	3.333649	13.017919	11.623152	-15.810952	-20.275795	29.703411	7.402224	25.257932	16.440421	18.196553	5.733262	28.355693	20.463916	5.303332	-3.275214	45.811188	30.908140	-4.760404	-11.309121	47.224939	38.124820
-0.405000	-3.835761	-5.011433	94.526577	0.023611	-0.246484	0.030936	87.874111	7.175957	3.853644	11.500323	12.318233	-15.582110	-19.117899	31.254721	7.457253	24.373666	15.858175	19.734602	5.763019	27.439906	20.192904	6.660024	-3.125734	44.851584	30.940455	-3.244454	-11.180069	45.888746	37.286652
-0.395000	-3.835761	-5.011433	94.526577	0.028796	-0.244117	0.035817	87.834437	8.547849	4.358170	10.107532	12.916511	-15.329425	-18.069275	32.781260	7.539138	23.622701	15.352659	21.339252	5.789935	26.635420	19.913125	8.049053	-2.992685	43.896879	31.068823	-2.041166	-11.048724	44.917497	36.665239
-0.385000	-3.835761	-5.011433	94.526577	0.034325	-0.241982	0.040971	87.897336	9.862546	4.854470	8.865137	13.483209	-15.092088	-17.193049	34.249534	7.652397	23.044957	14.950162	22.979828	5.818655	25.979323	19.645816	9.424522	-2.884745	42.989034	31.299287	-1.115670	-10.946071	44.283092	36.252661
-0.375000	-3.835761	-5.011433	94.526577	0.040166	-0.240133	0.046393	88.037092	11.072346	5.348465	7.779133	14.081177	-14.903252	-16.527039	35.630377	7.796188	22.659422	14.656843	24.620817	5.854960	25.490400	19.406287	10.743013	-2.806612	42.179322	31.616457	-0.403961	-10.897753	43.927393	36.008055
-0.365000	-3.835761	-5.011433	94.526577	0.046271	-0.238599	0.052056	88.241772	12.151992	5.843859	6.831692	14.757133	-14.777475	-16.066517	36.900233	7.964375	22.454938	14.460649	26.225918	5.905412	25.159106	19.205805	11.970160	-2.759122	41.508241	31.986769	0.157707	-10.917085	43.774713	35.880393
-0.355000	-3.835761	-5.011433	94.526577	0.052575	-0.237392	0.057909	88.516385	13.098864	6.343706	5.987432	15.538525	-14.708557	-15.768167	38.041668	8.146625	22.393825	14.340131	27.761162	5.974972	24.949337	19.056006	13.088956	-2.739430	40.989056	32.366999	0.608692	-11.003125	43.749363	35.830013
-0.345000	-3.835761	-5.011433	94.526577	0.059011	-0.236507	0.063894	88.880209	13.928343	6.853196	5.206210	16.439152	-14.675567	-15.569081	39.042446	8.330894	22.427611	14.276212	29.195450	6.064014	24.813694	18.972444	14.105372	-2.741775	40.604437	32.716038	0.956688	-11.142837	43.791344	35.838879
